<svg xmlns="http://www.w3.org/2000/svg" width="1220" height="860" viewBox="0 0 1220 860" role="img" aria-labelledby="title desc">
  <title id="title">Dev Alias Manager menu preview</title>
  <desc id="desc">Clean terminal-style preview showing the main menu, Daily Favorites, and action prompt.</desc>
  <defs>
    <filter id="shadow" x="-20%" y="-20%" width="140%" height="140%">
      <feDropShadow dx="0" dy="18" stdDeviation="22" flood-color="#000000" flood-opacity="0.35"/>
    </filter>
  </defs>

  <rect width="1220" height="860" rx="26" fill="#161616"/>
  <rect x="30" y="30" width="1160" height="800" rx="20" fill="#0d0f12" stroke="#34343a" stroke-width="2" filter="url(#shadow)"/>

  <circle cx="68" cy="64" r="8" fill="#ff5f57"/>
  <circle cx="94" cy="64" r="8" fill="#ffbd2e"/>
  <circle cx="120" cy="64" r="8" fill="#28c840"/>
  <text x="152" y="71" fill="#fb7185" font-family="ui-monospace, SFMono-Regular, Menlo, Consolas, monospace" font-size="20" font-weight="700">Dev Alias Manager</text>
  <text x="948" y="71" fill="#71717a" font-family="ui-monospace, SFMono-Regular, Menlo, Consolas, monospace" font-size="15">Laravel / PHP / Sail</text>

  <g font-family="ui-monospace, SFMono-Regular, Menlo, Consolas, monospace">
    <rect x="62" y="112" width="620" height="106" rx="14" fill="#15171b" stroke="#2f3036"/>
    <text x="88" y="150" fill="#fb7185" font-size="24" font-weight="700">Dev Alias Manager</text>
    <text x="88" y="184" fill="#a1a1aa" font-size="18">Laravel/PHP fullstack alias control center.</text>

    <rect x="716" y="112" width="412" height="106" rx="14" fill="#17110d" stroke="#4a2a18"/>
    <text x="742" y="150" fill="#fb923c" font-size="21" font-weight="700">Choose action ›</text>
    <text x="742" y="184" fill="#f4f4f5" font-size="18">5 opens Daily Favorites</text>

    <g font-size="18">
      <rect x="62" y="252" width="250" height="58" rx="10" fill="#15171b" stroke="#3a2020"/>
      <text x="86" y="288" fill="#fb7185" font-weight="700">1</text>
      <text x="118" y="288" fill="#f4f4f5">Setup packs</text>

      <rect x="332" y="252" width="250" height="58" rx="10" fill="#15171b" stroke="#463018"/>
      <text x="356" y="288" fill="#fb923c" font-weight="700">2</text>
      <text x="388" y="288" fill="#f4f4f5">Show packs</text>

      <rect x="602" y="252" width="250" height="58" rx="10" fill="#15171b" stroke="#1d3c4d"/>
      <text x="626" y="288" fill="#38bdf8" font-weight="700">3</text>
      <text x="658" y="288" fill="#f4f4f5">List aliases</text>

      <rect x="872" y="252" width="250" height="58" rx="10" fill="#15171b" stroke="#1d3b27"/>
      <text x="896" y="288" fill="#22c55e" font-weight="700">4</text>
      <text x="928" y="288" fill="#f4f4f5">Search aliases</text>

      <rect x="62" y="330" width="250" height="58" rx="10" fill="#15171b" stroke="#4a4216"/>
      <text x="86" y="366" fill="#facc15" font-weight="700">5</text>
      <text x="118" y="366" fill="#f4f4f5">Daily Favorites</text>

      <rect x="332" y="330" width="250" height="58" rx="10" fill="#15171b" stroke="#462241"/>
      <text x="356" y="366" fill="#f472b6" font-weight="700">6</text>
      <text x="388" y="366" fill="#f4f4f5">Add custom</text>

      <rect x="602" y="330" width="250" height="58" rx="10" fill="#15171b" stroke="#3a2020"/>
      <text x="626" y="366" fill="#fb7185" font-weight="700">7</text>
      <text x="658" y="366" fill="#f4f4f5">Check tools</text>

      <rect x="872" y="330" width="250" height="58" rx="10" fill="#15171b" stroke="#463018"/>
      <text x="896" y="366" fill="#fb923c" font-weight="700">8</text>
      <text x="928" y="366" fill="#f4f4f5">Config</text>
    </g>

    <rect x="62" y="438" width="1060" height="292" rx="14" fill="#111317" stroke="#2f3036"/>
    <text x="88" y="480" fill="#fb7185" font-size="22" font-weight="700">Daily Favorites</text>
    <text x="88" y="512" fill="#a1a1aa" font-size="17">Your short list for commands you use or forget often.</text>

    <g font-size="17">
      <text x="92" y="560" fill="#71717a">No</text>
      <text x="180" y="560" fill="#71717a">Alias</text>
      <text x="390" y="560" fill="#71717a">Pack</text>
      <text x="565" y="560" fill="#71717a">Subtitle</text>
      <line x1="88" y1="578" x2="1094" y2="578" stroke="#2f3036"/>

      <text x="92" y="618" fill="#fb923c">1</text>
      <text x="180" y="618" fill="#f4f4f5">sup</text>
      <text x="390" y="618" fill="#fb923c">sail</text>
      <text x="565" y="618" fill="#f4f4f5">Start Sail detached</text>
      <line x1="88" y1="638" x2="1094" y2="638" stroke="#24262b"/>

      <text x="92" y="678" fill="#fb923c">2</text>
      <text x="180" y="678" fill="#f4f4f5">myroutes</text>
      <text x="390" y="678" fill="#fb7185">laravel</text>
      <text x="565" y="678" fill="#f4f4f5">Show Laravel routes</text>
    </g>

    <text x="88" y="782" fill="#fb7185" font-size="20" font-weight="700">Choose action</text>
    <text x="242" y="782" fill="#fb923c" font-size="20">›</text>
    <text x="274" y="782" fill="#ffffff" font-size="20">3</text>
    <text x="322" y="782" fill="#71717a" font-size="17">Search &amp; add aliases: sup supb sdown</text>
  </g>
</svg>
